<svg xmlns="http://www.w3.org/2000/svg" width="19" height="19" viewBox="0 0 19 19">
  <metadata><?xpacket begin="﻿" id="W5M0MpCehiHzreSzNTczkc9d"?>
<x:xmpmeta xmlns:x="adobe:ns:meta/" x:xmptk="Adobe XMP Core 5.6-c142 79.160924, 2017/07/13-01:06:39        ">
   <rdf:RDF xmlns:rdf="http://www.w3.org/1999/02/22-rdf-syntax-ns#">
      <rdf:Description rdf:about=""/>
   </rdf:RDF>
</x:xmpmeta>
                                                                                                    
                                                                                                    
                                                                                                    
                                                                                                    
                                                                                                    
                                                                                                    
                                                                                                    
                                                                                                    
                                                                                                    
                                                                                                    
                                                                                                    
                                                                                                    
                                                                                                    
                                                                                                    
                                                                                                    
                                                                                                    
                                                                                                    
                                                                                                    
                                                                                                    
                                                                                                    
                           
<?xpacket end="w"?></metadata>
<defs>
    <style>
      .cls-1 {
        fill: #fff;
        fill-rule: evenodd;
      }
    </style>
  </defs>
  <path id="Forma_1" data-name="Forma 1" class="cls-1" d="M1362,39.255a9.346,9.346,0,0,1-13.84,8.1L1343,49l1.68-4.966a9.144,9.144,0,0,1-1.33-4.779A9.325,9.325,0,0,1,1362,39.255Zm-9.33-7.781a7.768,7.768,0,0,0-6.35,12.343l-0.98,2.89,3.02-.957A7.8,7.8,0,1,0,1352.67,31.474Zm4.71,9.913a1.083,1.083,0,0,0-.44-0.264c-0.22-.114-1.35-0.662-1.56-0.738a0.353,0.353,0,0,0-.51.113,11.1,11.1,0,0,1-.73.889,0.344,0.344,0,0,1-.49.057,6.186,6.186,0,0,1-1.84-1.126,6.682,6.682,0,0,1-1.27-1.571,0.319,0.319,0,0,1,.1-0.462c0.1-.1.23-0.264,0.34-0.4a1.482,1.482,0,0,0,.23-0.378,0.4,0.4,0,0,0-.02-0.4c-0.06-.114-0.51-1.23-0.7-1.685s-0.39-.378-0.52-0.378-0.28-.02-0.44-0.02a0.848,0.848,0,0,0-.61.285,2.532,2.532,0,0,0-.8,1.892,4.337,4.337,0,0,0,.94,2.346,9.314,9.314,0,0,0,3.9,3.424c2.33,0.909,2.33.605,2.75,0.568a2.325,2.325,0,0,0,1.54-1.078A1.847,1.847,0,0,0,1357.38,41.387Z" transform="translate(-1343 -30)"/>
</svg>
